<?xml version="1.0" encoding="UTF-8"?>
<svg width="700pt" height="700pt" version="1.1" viewBox="0 0 700 700" xmlns="http://www.w3.org/2000/svg">
 <path d="m350 23.332c-68.07 0-133.36 27.043-181.49 75.176-48.133 48.137-75.176 113.42-75.176 181.49s27.043 133.36 75.176 181.49c48.137 48.133 113.42 75.176 181.49 75.176s133.36-27.043 181.49-75.176c48.133-48.137 75.176-113.42 75.176-181.49s-27.043-133.36-75.176-181.49c-48.137-48.133-113.42-75.176-181.49-75.176zm133.23 273.23-70 70c-4.3828 4.418-10.348 6.9023-16.566 6.9023-6.2227 0-12.188-2.4844-16.566-6.9023-4.418-4.3828-6.9023-10.344-6.9023-16.566s2.4844-12.184 6.9023-16.566l30.332-30.102h-177.1c-8.3359 0-16.039-4.4453-20.207-11.664s-4.168-16.117 0-23.336 11.871-11.664 20.207-11.664h177.1l-30.332-30.102c-5.9219-5.918-8.2305-14.547-6.0664-22.629 2.168-8.0859 8.4844-14.402 16.566-16.566 8.0859-2.168 16.715 0.14453 22.633 6.0625l70 70c4.418 4.3828 6.9023 10.344 6.9023 16.566s-2.4844 12.184-6.9023 16.566z"/>
</svg>
